<?xml version="1.0" encoding="UTF-8" ?>

<svg width="154" height="136" xmlns="http://www.w3.org/2000/svg" version="1.1">

<defs>
	<linearGradient id="greyGradient" x1="0" x2="0" y1="0" y2="1">
		<stop stop-color="#d4d4d4" offset="0%" />
		<stop stop-color="#fff" offset="100%" />
	</linearGradient>
	<linearGradient id="greyGradientOuter" x1="0" x2="0" y1="0" y2="1">
		<stop stop-color="#fff" offset="0%" />
		<stop stop-color="#d4d4d4" offset="100%" />
	</linearGradient>

	<filter id="textShadow" x="-20%" y="-20%" width="220%" height="220%">
		<feDropShadow dx="0" dy="4" stdDeviation="6" flood-color="#fff" />
		<feDropShadow dx="0" dy="-4" stdDeviation="6" flood-color="#fff" />
	</filter>
</defs>

<style>
	.editText
	{
		font-family: -apple-system, BlinkMacSystemFont, sans-serif;
		font-size: 22pt;
		font-weight: bold;
		fill: black
	}
</style>

<text x="19" y="114" class="editText" filter="url(#textShadow)">Settings</text>

<circle cx="77" cy="43" r="42" fill="url(#greyGradientOuter)" stroke="#d4d4d4" stroke-width="1px" />
<circle cx="77" cy="43" r="36" fill="url(#greyGradient)" />

<rect x="58" y="25" width="4" height="34" fill="#218dff" />
<circle cx="60" cy="59" r="2" fill="#218dff" />

<rect x="75" y="27" width="4" height="34" fill="#218dff" />
<circle cx="77" cy="27" r="2" fill="#218dff" />

<rect x="92" y="27" width="4" height="32" fill="#218dff" />
<circle cx="94" cy="27" r="2" fill="#218dff" />
<circle cx="94" cy="59" r="2" fill="#218dff" />

<circle cx="54" cy="29" r="4" fill="#218dff" />
<circle cx="54" cy="29" r="1" fill="#e0e0e0" />
<circle cx="66" cy="29" r="4" fill="#218dff" />
<circle cx="66" cy="29" r="1" fill="#e0e0e0" />
<rect x="54" y="25" width="12" height="8" fill="#218dff" />
<rect x="54" y="28" width="12" height="2" fill="#e0e0e0" />

<circle cx="71" cy="57" r="4" fill="#218dff" />
<circle cx="71" cy="57" r="1" fill="#f6f6f6" />
<circle cx="83" cy="57" r="4" fill="#218dff" />
<circle cx="83" cy="57" r="1" fill="#f6f6f6" />
<rect x="71" y="53" width="12" height="8" fill="#218dff" />
<rect x="71" y="56" width="12" height="2" fill="#f6f6f6" />

<circle cx="88" cy="43" r="4" fill="#218dff" />
<circle cx="88" cy="43" r="1" fill="#ebebeb" />
<circle cx="100" cy="43" r="4" fill="#218dff" />
<circle cx="100" cy="43" r="1" fill="#ebebeb" />
<rect x="88" y="39" width="12" height="8" fill="#218dff" />
<rect x="88" y="42" width="12" height="2" fill="#ebebeb" />

</svg>