<?xml version="1.0" encoding="UTF-8" ?>

<svg width="154" height="136" xmlns="http://www.w3.org/2000/svg" version="1.1">

<rect x="58" y="25" width="4" height="34" fill="#b0b0b0" />
<circle cx="60" cy="59" r="2" fill="#b0b0b0" />

<rect x="75" y="27" width="4" height="34" fill="#b0b0b0" />
<circle cx="77" cy="27" r="2" fill="#b0b0b0" />

<rect x="92" y="27" width="4" height="32" fill="#b0b0b0" />
<circle cx="94" cy="27" r="2" fill="#b0b0b0" />
<circle cx="94" cy="59" r="2" fill="#b0b0b0" />

<circle cx="54" cy="29" r="4" fill="#b0b0b0" />
<circle cx="54" cy="29" r="1" fill="#fff" />
<circle cx="66" cy="29" r="4" fill="#b0b0b0" />
<circle cx="66" cy="29" r="1" fill="#fff" />
<rect x="54" y="25" width="12" height="8" fill="#b0b0b0" />
<rect x="54" y="28" width="12" height="2" fill="#fff" />

<circle cx="71" cy="57" r="4" fill="#b0b0b0" />
<circle cx="71" cy="57" r="1" fill="#fff" />
<circle cx="83" cy="57" r="4" fill="#b0b0b0" />
<circle cx="83" cy="57" r="1" fill="#fff" />
<rect x="71" y="53" width="12" height="8" fill="#b0b0b0" />
<rect x="71" y="56" width="12" height="2" fill="#fff" />

<circle cx="88" cy="43" r="4" fill="#b0b0b0" />
<circle cx="88" cy="43" r="1" fill="#fff" />
<circle cx="100" cy="43" r="4" fill="#b0b0b0" />
<circle cx="100" cy="43" r="1" fill="#fff" />
<rect x="88" y="39" width="12" height="8" fill="#b0b0b0" />
<rect x="88" y="42" width="12" height="2" fill="#fff" />

</svg>